<svg width="25" height="25" viewBox="0 0 25 25" fill="none" xmlns="http://www.w3.org/2000/svg">
<path d="M22.3063 10.983H21.862V5.83159C21.862 4.34634 20.6536 3.13794 19.1683 3.13794H5.83174C4.34644 3.13794 3.13809 4.34634 3.13809 5.83159V10.983H2.69365C1.20835 10.983 0 12.1913 0 13.6767V19.5605V21.1295C0 21.534 0.32793 21.8619 0.732422 21.8619C1.13691 21.8619 1.46484 21.534 1.46484 21.1295V20.2929H23.5352V21.1295C23.5352 21.534 23.8631 21.8619 24.2676 21.8619C24.6721 21.8619 25 21.534 25 21.1295V19.5605V13.6767C25 12.1913 23.7917 10.983 22.3063 10.983ZM4.60293 5.83159C4.60293 5.15405 5.15415 4.60278 5.83174 4.60278H19.1683C19.8459 4.60278 20.3972 5.15405 20.3972 5.83159V10.983H17.6416C17.8315 10.6142 17.9395 10.1967 17.9395 9.75415V8.96963C17.9395 7.48438 16.7312 6.27598 15.2458 6.27598H9.7543C8.26895 6.27598 7.06055 7.48438 7.06055 8.96963V9.75415C7.06055 10.1967 7.16851 10.6142 7.3584 10.983H4.60293V5.83159ZM8.52539 9.75415V8.96963C8.52539 8.29209 9.07666 7.74082 9.7543 7.74082H15.2458C15.9234 7.74082 16.4747 8.29209 16.4747 8.96963V9.75415C16.4747 10.4317 15.9234 10.983 15.2458 10.983H9.7543C9.07666 10.983 8.52539 10.4317 8.52539 9.75415ZM2.69365 12.4478H3.87051H9.7543H15.2458H21.1296H22.3064C22.984 12.4478 23.5352 12.9991 23.5352 13.6767V15.69H1.46484V13.6767C1.46484 12.9991 2.01606 12.4478 2.69365 12.4478ZM1.46484 17.1548H23.5352V18.828H1.46484V17.1548Z" fill="white"/>
</svg>
