<svg width="60" height="60" viewBox="0 0 60 60" fill="none" xmlns="http://www.w3.org/2000/svg">
<g clip-path="url(#clip0_2_4706)">
<path d="M59.8721 43.0615L41.8253 7.67084C41.5449 7.12088 40.8858 6.88276 40.3184 7.12663C34.7826 9.50741 30.6263 9.49803 23.2136 7.08866C22.6716 6.91299 22.0423 7.18182 21.7954 7.69604L4.82147 43.0487L0.154591 51.2156C-0.166503 51.7775 0.0287313 52.4933 0.590763 52.8145C1.14635 53.1322 1.87315 52.9323 2.18955 52.3783L4.68764 48.0067V51.797C4.68764 52.4441 5.2124 52.9689 5.85951 52.9689H58.8282C59.4753 52.9689 60 52.4441 60 51.797C60 51.797 60 43.5971 60 43.5939C60 43.5683 59.9438 43.202 59.8721 43.0615ZM13.1253 39.2579V50.6251H7.03151V43.8606L21.6799 13.3514V36.6487L14.0763 38.1069C13.5244 38.2128 13.1253 38.6958 13.1253 39.2579ZM15.4689 40.2264L20.4899 39.2634L15.4689 47.5858V40.2264ZM16.3728 50.6251L22.8518 39.8859L29.3309 50.6251H16.3728ZM30.2345 47.586L25.2887 39.388L30.2345 40.5397V47.586ZM38.9065 50.6251H32.5783V39.6095C32.5783 39.0647 32.2028 38.5917 31.6723 38.4682L24.0237 36.6871V13.2883L38.9065 43.8639V50.6251ZM28.3317 16.7839C28.9923 16.9339 29.743 17.0864 30.5427 17.2161C31.1712 17.3206 31.786 16.8731 31.8867 16.2469C31.9899 15.6082 31.5551 15.0058 30.9176 14.9027C29.6684 14.7 28.534 14.4328 27.8016 14.243C27.5202 14.171 27.2489 14.0965 26.9871 14.0218L25.0803 10.1039C30.3905 11.5786 34.7656 11.8127 40.2271 9.69596L56.9152 42.4221H40.8112L28.3317 16.7839ZM41.2501 50.6251V47.0316L44.0222 50.6251H41.2501ZM57.6563 50.6251H46.9824L42.4623 44.7657H57.6563V50.6251Z" fill="#3554D1"/>
<path d="M35.4012 17.4844C36.0484 17.4844 36.5731 16.9597 36.5731 16.3125C36.5731 15.6653 36.0484 15.1406 35.4012 15.1406C34.754 15.1406 34.2293 15.6653 34.2293 16.3125C34.2293 16.9597 34.754 17.4844 35.4012 17.4844Z" fill="#3554D1"/>
</g>
<defs>
<clipPath id="clip0_2_4706">
<rect width="60" height="60" fill="white"/>
</clipPath>
</defs>
</svg>
