<svg width="30" height="30" viewBox="0 0 30 30" fill="none" xmlns="http://www.w3.org/2000/svg">
<path d="M28.4164 16.8193L22.9379 14.4242L19.6594 10.3893C19.4622 10.1452 19.2127 9.94843 18.9294 9.81345C18.6461 9.67847 18.3361 9.60874 18.0223 9.60939H4.90898C4.42987 9.60779 3.95989 9.74045 3.55233 9.99235C3.14478 10.2443 2.81595 10.6053 2.60314 11.0346L0.506367 15.2276C0.328102 15.5856 0.235015 15.98 0.234375 16.3799V22.0313C0.234995 22.5905 0.457432 23.1267 0.852882 23.5221C1.24833 23.9176 1.7845 24.14 2.34375 24.1406H3.1176C3.27972 24.9346 3.71114 25.6483 4.33887 26.1608C4.96661 26.6733 5.75211 26.9532 6.5625 26.9532C7.37289 26.9532 8.15839 26.6733 8.78613 26.1608C9.41386 25.6483 9.84528 24.9346 10.0074 24.1406H20.9302C21.0922 24.9354 21.524 25.6497 22.1525 26.1624C22.781 26.6752 23.5674 26.9548 24.3785 26.954C25.1896 26.9532 25.9755 26.6719 26.6029 26.1579C27.2304 25.6439 27.6607 24.9287 27.8211 24.1336C28.3501 24.0916 28.8439 23.8519 29.2042 23.4624C29.5645 23.0728 29.7649 22.5619 29.7656 22.0313V18.7869C29.7643 18.3614 29.6348 17.9461 29.3942 17.5952C29.1536 17.2443 28.8128 16.9739 28.4164 16.8193ZM18.5676 11.2757L21.0226 14.2969H15.7031V11.0156H18.0223C18.1268 11.0154 18.2301 11.0387 18.3245 11.0837C18.4189 11.1287 18.5019 11.1943 18.5676 11.2757ZM11.4844 11.0156V14.2969H5.5125L7.0892 11.0156H11.4844ZM3.86092 11.6635C3.95764 11.4684 4.10709 11.3043 4.29234 11.1898C4.47758 11.0752 4.69121 11.0149 4.90898 11.0156H5.52902L3.95232 14.2969H2.54402L3.86092 11.6635ZM6.5625 25.5469C6.14531 25.5469 5.73748 25.4232 5.39059 25.1914C5.04371 24.9596 4.77334 24.6302 4.61369 24.2447C4.45404 23.8593 4.41227 23.4352 4.49366 23.026C4.57505 22.6168 4.77595 22.241 5.07095 21.946C5.36595 21.651 5.7418 21.4501 6.15098 21.3687C6.56016 21.2873 6.98428 21.3291 7.36972 21.4887C7.75516 21.6484 8.0846 21.9187 8.31638 22.2656C8.54816 22.6125 8.67188 23.0203 8.67188 23.4375C8.67126 23.9968 8.44882 24.5329 8.05337 24.9284C7.65792 25.3238 7.12175 25.5463 6.5625 25.5469ZM24.375 25.5469C23.9578 25.5469 23.55 25.4232 23.2031 25.1914C22.8562 24.9596 22.5858 24.6302 22.4262 24.2447C22.2665 23.8593 22.2248 23.4352 22.3062 23.026C22.3875 22.6168 22.5884 22.241 22.8834 21.946C23.1784 21.651 23.5543 21.4501 23.9635 21.3687C24.3727 21.2873 24.7968 21.3291 25.1822 21.4887C25.5677 21.6484 25.8971 21.9187 26.1289 22.2656C26.3607 22.6125 26.4844 23.0203 26.4844 23.4375C26.4838 23.9968 26.2613 24.5329 25.8659 24.9284C25.4704 25.3238 24.9342 25.5463 24.375 25.5469ZM28.3594 22.0313C28.3591 22.1899 28.3053 22.3438 28.2066 22.4679C28.1079 22.5921 27.9702 22.6794 27.8157 22.7155C27.6498 21.9239 27.216 21.2137 26.5874 20.7047C25.9589 20.1956 25.174 19.9189 24.3652 19.9211C23.5564 19.9234 22.7731 20.2044 22.1474 20.7169C21.5216 21.2293 21.0917 21.9419 20.9302 22.7344H10.0074C9.84528 21.9404 9.41386 21.2268 8.78613 20.7142C8.15839 20.2017 7.37289 19.9218 6.5625 19.9218C5.75211 19.9218 4.96661 20.2017 4.33887 20.7142C3.71114 21.2268 3.27972 21.9404 3.1176 22.7344H2.34375C2.15733 22.7342 1.97861 22.66 1.84679 22.5282C1.71497 22.3964 1.64083 22.2177 1.64062 22.0313V16.3799C1.64098 16.198 1.68335 16.0187 1.76443 15.8559L1.84061 15.7031H12.1875C12.374 15.7031 12.5528 15.6291 12.6847 15.4972C12.8165 15.3653 12.8906 15.1865 12.8906 15V11.0156H14.2969V15C14.2969 15.1865 14.371 15.3653 14.5028 15.4972C14.6347 15.6291 14.8135 15.7031 15 15.7031H22.353L27.8685 18.1146C27.88 18.1196 27.8916 18.1243 27.9033 18.1287C28.0371 18.1793 28.1522 18.2694 28.2337 18.3869C28.3151 18.5045 28.3589 18.6439 28.3594 18.7869V22.0313Z" fill="#051036"/>
<path d="M6.5625 24.1406C6.95083 24.1406 7.26562 23.8258 7.26562 23.4375C7.26562 23.0492 6.95083 22.7344 6.5625 22.7344C6.17417 22.7344 5.85938 23.0492 5.85938 23.4375C5.85938 23.8258 6.17417 24.1406 6.5625 24.1406Z" fill="#051036"/>
<path d="M24.375 24.1406C24.7633 24.1406 25.0781 23.8258 25.0781 23.4375C25.0781 23.0492 24.7633 22.7344 24.375 22.7344C23.9867 22.7344 23.6719 23.0492 23.6719 23.4375C23.6719 23.8258 23.9867 24.1406 24.375 24.1406Z" fill="#051036"/>
<path d="M15.9375 17.1094H15.0586C14.8721 17.1094 14.6933 17.1835 14.5614 17.3153C14.4295 17.4472 14.3555 17.626 14.3555 17.8125C14.3555 17.999 14.4295 18.1778 14.5614 18.3097C14.6933 18.4415 14.8721 18.5156 15.0586 18.5156H15.9375C16.124 18.5156 16.3028 18.4415 16.4347 18.3097C16.5665 18.1778 16.6406 17.999 16.6406 17.8125C16.6406 17.626 16.5665 17.4472 16.4347 17.3153C16.3028 17.1835 16.124 17.1094 15.9375 17.1094Z" fill="#051036"/>
<path d="M7.5 17.1094H6.09375C5.90727 17.1094 5.72843 17.1835 5.59657 17.3153C5.4647 17.4472 5.39063 17.626 5.39062 17.8125C5.39063 17.999 5.4647 18.1778 5.59657 18.3097C5.72843 18.4415 5.90727 18.5156 6.09375 18.5156H7.5C7.68648 18.5156 7.86532 18.4415 7.99718 18.3097C8.12905 18.1778 8.20312 17.999 8.20312 17.8125C8.20312 17.626 8.12905 17.4472 7.99718 17.3153C7.86532 17.1835 7.68648 17.1094 7.5 17.1094Z" fill="#051036"/>
</svg>
