<svg width="50" height="50" viewBox="0 0 50 50" fill="none" xmlns="http://www.w3.org/2000/svg">
<path d="M22.4716 29.9443C21.7787 29.2528 21.2308 28.4299 20.8601 27.5239C20.4893 26.6178 20.3031 25.6469 20.3125 24.668V21.1992C20.3077 20.3751 20.5039 19.5623 20.8841 18.8311C21.2657 18.1015 21.8234 17.4789 22.5066 17.0195C22.9001 16.7552 23.3132 16.5212 23.7423 16.3196C23.5597 16.0696 23.389 15.8241 23.234 15.585L23.2312 15.5859C21.9198 15.7863 20.6694 16.276 19.5708 17.0195C18.8894 17.4791 18.3338 18.1018 17.9547 18.8311C17.5744 19.5622 17.3781 20.3751 17.3828 21.1992V24.668C17.38 25.7708 17.6223 26.8604 18.0921 27.8581C18.562 28.8558 19.2477 29.7366 20.0996 30.4369C20.9516 31.1371 21.9485 31.6393 23.0183 31.9071C24.0881 32.1749 25.204 32.2016 26.2854 31.9854C24.8402 31.6974 23.5129 30.9871 22.4716 29.9443Z" fill="#D4E1F4"/>
<path d="M25.1311 10.6082C25.0587 10.6342 24.9921 10.6743 24.9352 10.7261C24.8783 10.7779 24.8321 10.8404 24.7994 10.9101C24.7666 10.9797 24.7479 11.0551 24.7443 11.132C24.7407 11.2088 24.7523 11.2857 24.7783 11.3581C24.8092 11.4437 25.5556 13.4806 27.467 15.7417C27.5677 15.8593 27.7107 15.9323 27.865 15.9448C28.0193 15.9572 28.1723 15.9081 28.2905 15.8082C28.4087 15.7083 28.4826 15.5656 28.496 15.4114C28.5094 15.2572 28.4612 15.1039 28.3619 14.9851C26.595 12.8953 25.8875 10.9793 25.8807 10.9601C25.8279 10.8141 25.7193 10.695 25.5787 10.629C25.4382 10.563 25.2772 10.5555 25.1311 10.6082Z" fill="#0635C9"/>
<path d="M36.5722 34.0821H29.5898V31.1116C30.6188 30.3821 31.4576 29.416 32.0354 28.2947C32.6132 27.1734 32.9132 25.9297 32.9101 24.6683V23.8597C32.9101 23.8987 33.072 23.9389 33.1661 23.9778C33.2332 24.0073 33.3058 24.0226 33.3792 24.0227C33.4944 24.0225 33.6069 23.988 33.7024 23.9236C33.7979 23.8591 33.8719 23.7676 33.9151 23.6608C33.9741 23.5169 33.9735 23.3554 33.9136 23.2119C33.8536 23.0683 33.7391 22.9544 33.5953 22.8952C28.2112 20.6648 25.3608 17.6742 23.9191 15.5581C22.3686 13.2827 22.0659 11.5012 22.06 11.465C22.0365 11.3114 21.9528 11.1733 21.8275 11.0813C21.7021 10.9893 21.5454 10.9509 21.3917 10.9745C21.238 10.998 21.1 11.0817 21.008 11.207C20.916 11.3323 20.8776 11.4891 20.9011 11.6428C20.9119 11.713 21.1453 13.1693 22.296 15.1747C21.2072 15.4457 20.1743 15.9056 19.2443 16.5333C18.5605 16.9923 17.9867 17.5969 17.564 18.3038C17.1414 19.0107 16.8804 19.8023 16.7998 20.622C16.7486 20.6266 16.6928 20.6338 16.6425 20.6423C16.4228 20.0124 16.3099 19.3501 16.3086 18.683V17.3857C16.3086 14.99 17.2603 12.6924 18.9543 10.9983C20.6484 9.30425 22.946 8.35254 25.3418 8.35254C27.7375 8.35254 30.0351 9.30425 31.7292 10.9983C33.4233 12.6924 34.375 14.99 34.375 17.3857V18.0229C34.375 18.1783 34.4367 18.3273 34.5466 18.4372C34.6565 18.5471 34.8055 18.6088 34.9609 18.6088C35.1163 18.6088 35.2653 18.5471 35.3752 18.4372C35.4851 18.3273 35.5468 18.1783 35.5468 18.0229V17.3857C35.5493 15.6112 35.0891 13.8667 34.2116 12.3243C33.3341 10.7819 32.0696 9.49495 30.5429 8.59043C30.5813 8.34426 30.6022 8.0957 30.6056 7.84658C30.6056 7.15767 30.4699 6.4755 30.2063 5.83903C29.9427 5.20255 29.5562 4.62424 29.0691 4.1371C28.582 3.64997 28.0037 3.26355 27.3672 2.99991C26.7307 2.73628 26.0485 2.60059 25.3596 2.60059C24.6707 2.60059 23.9885 2.73628 23.3521 2.99991C22.7156 3.26355 22.1373 3.64997 21.6502 4.1371C21.163 4.62424 20.7766 5.20255 20.513 5.83903C20.2493 6.4755 20.1136 7.15767 20.1136 7.84658C20.113 8.09524 20.1298 8.34364 20.1639 8.58994C18.6342 9.49312 17.3661 10.7792 16.4845 12.3216C15.603 13.8639 15.1385 15.6093 15.1367 17.3857V18.683C15.1374 19.5594 15.2991 20.4283 15.6139 21.2462C15.5658 21.3646 15.5577 21.4954 15.591 21.6188C15.6242 21.7422 15.6969 21.8513 15.798 21.9295C15.8991 22.0077 16.023 22.0506 16.1507 22.0518C16.2785 22.0529 16.4032 22.0122 16.5056 21.9358C16.6441 21.8337 16.8114 21.7783 16.9835 21.7774H17.3566C17.4333 21.7779 17.5094 21.7631 17.5805 21.7341C17.6515 21.705 17.7161 21.6622 17.7705 21.6081C17.825 21.554 17.8682 21.4897 17.8977 21.4189C17.9272 21.348 17.9425 21.2721 17.9425 21.1953C17.939 20.4669 18.1154 19.7489 18.4561 19.1051C18.7969 18.4613 19.2913 17.9117 19.8957 17.505C20.8286 16.879 21.8767 16.4448 22.979 16.2275C24.3862 18.2885 26.9531 21.0878 31.7382 23.3321V24.6681C31.7382 26.494 31.0129 28.2452 29.7217 29.5363C28.4306 30.8275 26.6794 31.5528 24.8535 31.5528C23.0275 31.5528 21.2764 30.8275 19.9852 29.5363C18.6941 28.2452 17.9687 26.494 17.9687 24.6681V23.9972C17.9687 23.6736 17.6802 23.4376 17.3566 23.4376H16.9835C16.9421 23.4332 16.9011 23.4258 16.8608 23.4153C16.7851 23.4031 16.7077 23.406 16.6332 23.4239C16.5586 23.4417 16.4883 23.4741 16.4263 23.5193C16.3644 23.5644 16.3119 23.6214 16.2721 23.6869C16.2323 23.7524 16.2058 23.8252 16.1942 23.901C16.174 24.0558 16.2157 24.2123 16.3103 24.3365C16.4048 24.4607 16.5446 24.5425 16.6992 24.5643C16.7312 24.5713 16.7641 24.5739 16.7968 24.5718V24.6683C16.7968 27.4601 18.164 29.9235 20.4101 31.3675V34.0821H13.4282C12.638 34.0828 11.8557 34.2393 11.1261 34.5425C10.3964 34.8458 9.73369 35.29 9.17583 35.8496C8.61798 36.4092 8.17593 37.0733 7.87496 37.8039C7.57399 38.5346 7.42001 39.3173 7.42184 40.1075V48.3222C7.41882 48.3987 7.43096 48.4751 7.45757 48.5469C7.48418 48.6187 7.52472 48.6846 7.57687 48.7407C7.62901 48.7968 7.69174 48.8421 7.76143 48.8738C7.83113 48.9056 7.90642 48.9233 7.98297 48.9259H42.017C42.0935 48.9233 42.1689 48.9056 42.2386 48.8738C42.3083 48.842 42.371 48.7967 42.4232 48.7406C42.4754 48.6844 42.5159 48.6185 42.5425 48.5466C42.569 48.4748 42.5812 48.3983 42.5781 48.3218V40.1075C42.5799 39.3174 42.4259 38.5346 42.125 37.8041C41.8241 37.0735 41.3821 36.4094 40.8243 35.8498C40.2665 35.2901 39.6038 34.846 38.8742 34.5427C38.1446 34.2394 37.3624 34.0829 36.5722 34.0821ZM25.3654 3.76895C26.4465 3.77003 27.4831 4.19998 28.2476 4.96444C29.0121 5.7289 29.4422 6.76543 29.4433 7.84658C29.4433 7.90283 29.4415 7.95908 29.4391 8.01533C28.154 7.45609 26.7675 7.16748 25.3659 7.16748C23.9644 7.16748 22.5779 7.45609 21.2927 8.01533C21.2905 7.95918 21.288 7.90303 21.288 7.84678C21.2892 6.76569 21.7191 5.7292 22.4835 4.96471C23.2479 4.20023 24.2843 3.77019 25.3654 3.76895ZM21.582 32.0138C22.6602 32.5043 23.8358 32.7435 25.02 32.7133C26.2042 32.6832 27.366 32.3845 28.4179 31.8397V34.6778L27.6171 38.6015C25.9261 39.2399 24.0605 39.2407 22.3689 38.6037L21.582 34.6783V32.0138ZM13.0859 47.754V46.0938C13.0859 45.9384 13.0242 45.7894 12.9143 45.6795C12.8044 45.5696 12.6554 45.5079 12.5 45.5079C12.3446 45.5079 12.1955 45.5696 12.0856 45.6795C11.9758 45.7894 11.914 45.9384 11.914 46.0938V47.754H8.59371V40.1075C8.5914 39.4153 8.7377 38.7306 9.02272 38.0997C9.30774 37.4688 9.72485 36.9065 10.2459 36.4507C11.3341 37.8824 11.9204 39.6328 11.914 41.4312V42.1876C11.914 42.343 11.9758 42.492 12.0856 42.6019C12.1955 42.7118 12.3446 42.7735 12.5 42.7735C12.6554 42.7735 12.8044 42.7118 12.9143 42.6019C13.0242 42.492 13.0859 42.343 13.0859 42.1876V41.4311C13.0899 39.3965 12.4308 37.4161 11.2085 35.7897C11.8948 35.4361 12.6561 35.2524 13.4282 35.254H20.4594L23.0691 47.754H13.0859ZM24.2659 47.754L22.6338 39.9352C24.1803 40.3662 25.8152 40.3665 27.3619 39.936L25.7226 47.754H24.2659ZM36.8164 47.754H26.9201L29.541 35.254H36.5722C37.3018 35.2522 38.022 35.4181 38.6773 35.7388C37.4754 37.3507 36.823 39.306 36.8164 41.3167V47.754ZM41.4062 47.754H37.9882V41.3167C37.9902 39.5322 38.5738 37.7969 39.6504 36.3737C40.1994 36.8289 40.6414 37.3994 40.9448 38.0448C41.2483 38.6901 41.4058 39.3944 41.4062 40.1075V47.754Z" fill="#0635C9"/>
<path d="M15.4297 39.3613C15.5851 39.3613 15.7341 39.2996 15.844 39.1897C15.9539 39.0798 16.0156 38.9308 16.0156 38.7754V38.1602C16.0156 38.0048 15.9539 37.8557 15.844 37.7458C15.7341 37.636 15.5851 37.5742 15.4297 37.5742C15.2743 37.5742 15.1253 37.636 15.0154 37.7458C14.9055 37.8557 14.8438 38.0048 14.8438 38.1602V38.7754C14.8438 38.9308 14.9055 39.0798 15.0154 39.1897C15.1253 39.2996 15.2743 39.3613 15.4297 39.3613Z" fill="#0635C9"/>
<path d="M15.4297 45.709C15.5851 45.709 15.7341 45.6472 15.844 45.5374C15.9539 45.4275 16.0156 45.2784 16.0156 45.123V40.6309C16.0156 40.4755 15.9539 40.3264 15.844 40.2165C15.7341 40.1067 15.5851 40.0449 15.4297 40.0449C15.2743 40.0449 15.1253 40.1067 15.0154 40.2165C14.9055 40.3264 14.8438 40.4755 14.8438 40.6309V45.123C14.8438 45.2784 14.9055 45.4275 15.0154 45.5374C15.1253 45.6472 15.2743 45.709 15.4297 45.709Z" fill="#0635C9"/>
<path d="M38.2812 18.4622V14.3313C38.2812 7.03115 32.2999 1.09229 25 1.09229C17.7001 1.09229 11.7187 7.03115 11.7187 14.331V18.4618C11.0747 18.8584 10.5743 19.4502 10.2903 20.1511C10.0063 20.852 9.9536 21.6253 10.1399 22.3583L11.5488 27.7099C11.7852 28.6094 12.369 29.3783 13.1719 29.8477C13.9749 30.3171 14.9313 30.4486 15.8311 30.2133L18.2363 29.5853C18.3108 29.5659 18.3807 29.532 18.4422 29.4856C18.5036 29.4391 18.5552 29.3811 18.5942 29.3147C18.6331 29.2483 18.6586 29.1748 18.6692 29.0986C18.6797 29.0223 18.6752 28.9447 18.6557 28.8702L15.7833 17.8745C15.744 17.7242 15.6467 17.5956 15.5126 17.517C15.3709 17.4384 15.2046 17.4165 15.0473 17.4558L12.8906 18.0138V14.331C12.8906 7.67734 18.3462 2.26416 25 2.26416C31.6537 2.26416 37.1093 7.67734 37.1093 14.331V18.0138L34.9526 17.4558C34.7988 17.4165 34.6357 17.4384 34.4977 17.517C34.3622 17.5952 34.263 17.7237 34.2216 17.8745L31.3461 28.8701C31.3255 28.9438 31.3196 29.0208 31.3289 29.0967C31.3382 29.1726 31.3625 29.246 31.4003 29.3125C31.4381 29.379 31.4887 29.4373 31.5492 29.4841C31.6097 29.5309 31.6789 29.5653 31.7528 29.5852L33.789 30.1203V31.9635C33.7904 32.1412 33.7561 32.3174 33.6881 32.4816C33.6202 32.6458 33.5199 32.7946 33.3933 32.9194C33.2667 33.0441 33.1163 33.1421 32.9511 33.2076C32.7859 33.2731 32.6093 33.3048 32.4316 33.3007H29.1015V32.8602C29.106 32.7522 29.0884 32.6445 29.0499 32.5436C29.0114 32.4427 28.9528 32.3506 28.8776 32.2731C28.8023 32.1955 28.7122 32.1341 28.6125 32.0925C28.5128 32.0509 28.4056 32.03 28.2976 32.0312H24.4147C23.9471 32.0312 23.5351 32.3925 23.5351 32.8602V35.0152C23.5351 35.4828 23.9471 35.8398 24.4147 35.8398H28.2976C28.4054 35.8414 28.5124 35.821 28.612 35.7799C28.7117 35.7388 28.8019 35.6778 28.8771 35.6006C28.9524 35.5234 29.0111 35.4317 29.0497 35.3311C29.0882 35.2304 29.1059 35.1229 29.1015 35.0152V34.4726H32.4316C32.7631 34.4765 33.0921 34.4144 33.3994 34.2899C33.7067 34.1654 33.9862 33.9811 34.2216 33.7476C34.4569 33.5141 34.6435 33.2361 34.7705 32.9298C34.8974 32.6235 34.9621 32.295 34.9609 31.9635V30.3252C34.9609 30.3252 35.0174 30.3273 35.0402 30.3273C35.8155 30.3265 36.5687 30.0694 37.1827 29.5961C37.7968 29.1227 38.2371 28.4597 38.4352 27.7102L39.8573 22.3586C40.0441 21.6259 39.9919 20.8528 39.7084 20.1519C39.4249 19.451 38.9248 18.8589 38.2812 18.4622ZM12.6931 27.4135L11.2949 22.0619C11.1549 21.5235 11.2118 20.9528 11.4553 20.4527C11.6988 19.9525 12.1129 19.5557 12.623 19.3338L15.1859 29.1431C14.6324 29.1991 14.0772 29.0557 13.6201 28.7386C13.1631 28.4215 12.8343 27.9515 12.6931 27.4135ZM17.3745 28.5994L16.3269 28.8729L13.75 19.0114L14.7975 18.738L17.3745 28.5994ZM27.9296 34.6679H24.707V33.203H27.9296V34.6679ZM35.202 18.7377L36.2496 19.0111L33.673 28.8731L32.6254 28.5997L35.202 18.7377ZM38.705 22.062L37.3068 27.4136C37.1656 27.9517 36.8367 28.4217 36.3796 28.7388C35.9224 29.056 35.3671 29.1994 34.8135 29.1432L37.3764 19.3339C37.8866 19.5557 38.3008 19.9525 38.5444 20.4527C38.788 20.9528 38.8449 21.5236 38.705 22.062Z" fill="#1AE5BE"/>
</svg>
