<svg width="25" height="25" viewBox="0 0 25 25" fill="none" xmlns="http://www.w3.org/2000/svg">
<g clipPath="url(#clip0_268_16564)">
<path d="M20.6484 24.3359H4.35156C3.40457 24.3318 2.49766 23.9532 1.82877 23.2828C1.15987 22.6125 0.783304 21.7048 0.78125 20.7578V8.66401C0.785162 8.02292 0.961247 7.39466 1.29109 6.84492C1.62094 6.29518 2.09242 5.84416 2.65625 5.53901L10.7891 1.0937C11.3129 0.808567 11.8997 0.65918 12.4961 0.65918C13.0925 0.65918 13.6793 0.808567 14.2031 1.0937L22.3594 5.51558C22.9232 5.82072 23.3947 6.27174 23.7245 6.82148C24.0544 7.37122 24.2305 7.99949 24.2344 8.64058V20.7578C24.2323 21.7075 23.8536 22.6175 23.1813 23.2884C22.5091 23.9592 21.5981 24.3359 20.6484 24.3359ZM12.5 2.2187C12.1645 2.21821 11.8342 2.30145 11.5391 2.46089L3.38281 6.89058C3.06645 7.06578 2.80306 7.32287 2.62024 7.6349C2.43743 7.94692 2.34193 8.30238 2.34375 8.66401V20.7578C2.34375 21.2923 2.55611 21.805 2.93411 22.183C3.31212 22.561 3.8248 22.7734 4.35938 22.7734H20.6484C21.1817 22.7713 21.6923 22.558 22.0687 22.1803C22.445 21.8025 22.6563 21.291 22.6562 20.7578V8.66401C22.6565 8.30081 22.5587 7.94428 22.373 7.63211C22.1874 7.31994 21.9208 7.06373 21.6016 6.89058L13.4609 2.4687C13.1665 2.30654 12.8361 2.2206 12.5 2.2187Z" fill="#051036"/>
<path d="M12.5 20.9061C11.4125 20.9063 10.3588 20.5284 9.51937 19.8372C8.67989 19.1459 8.10687 18.1843 7.89844 17.117C7.88144 17.0051 7.889 16.8907 7.92057 16.782C7.95215 16.6732 8.00699 16.5726 8.08131 16.4871C8.15562 16.4017 8.24763 16.3334 8.35095 16.287C8.45427 16.2407 8.56644 16.2173 8.67969 16.2186C8.86581 16.2159 9.04678 16.2797 9.19001 16.3986C9.33324 16.5175 9.42931 16.6836 9.46094 16.867C9.60807 17.5693 9.9924 18.1996 10.5494 18.6519C11.1063 19.1043 11.802 19.3512 12.5195 19.3512C13.2371 19.3512 13.9327 19.1043 14.4897 18.6519C15.0467 18.1996 15.431 17.5693 15.5781 16.867C15.6097 16.6836 15.7058 16.5175 15.8491 16.3986C15.9923 16.2797 16.1733 16.2159 16.3594 16.2186C16.4726 16.2173 16.5848 16.2407 16.6881 16.287C16.7914 16.3334 16.8834 16.4017 16.9578 16.4871C17.0321 16.5726 17.0869 16.6732 17.1185 16.782C17.1501 16.8907 17.1576 17.0051 17.1406 17.117C16.9309 18.1909 16.3522 19.1577 15.5046 19.8497C14.6571 20.5417 13.5941 20.9154 12.5 20.9061Z" fill="#051036"/>
</g>
<defs>
<clipPath id="clip0_268_16564">
<rect width="25" height="25" fill="white"/>
</clipPath>
</defs>
</svg>
