<svg width="50" height="50" viewBox="0 0 50 50" fill="none" xmlns="http://www.w3.org/2000/svg">
<path d="M27.7168 34.1205H9.444C7.15447 34.1185 5.29866 32.2697 5.29664 29.9883V6.00805C5.29664 5.81578 5.31045 5.62351 5.33739 5.43359C3.29132 5.72216 1.76957 7.46567 1.76721 9.52459V33.5055C1.76957 35.7865 3.62504 37.6347 5.9139 37.6374H28.7941L27.7168 34.1205Z" fill="#D4E1F4"/>
<path d="M39.6878 9.55432V24.0258C39.1894 23.9399 38.6853 23.8913 38.1795 23.8798V14.7432H3.05998V33.0215C3.06234 34.9767 4.65279 36.5609 6.615 36.5639H27.6566C27.7663 37.0752 27.9155 37.5776 28.1027 38.0665H6.615C3.82002 38.0628 1.5554 35.8062 1.5517 33.0215V9.55432C1.55506 6.76894 3.82002 4.51239 6.615 4.50903H34.6245C37.4195 4.51205 39.6848 6.76894 39.6878 9.55432ZM38.1795 13.2403V9.55432C38.1775 7.59909 36.5871 6.01396 34.6245 6.01195H6.615C4.65279 6.0143 3.06234 7.59909 3.05998 9.55432V13.2403H38.1795Z" fill="#0635C9"/>
<path d="M39.6878 24.0258C39.1894 23.9399 38.6853 23.8912 38.1795 23.8798C38.0947 23.8771 38.0081 23.8765 37.9219 23.8765C37.5054 23.8765 37.168 24.2127 37.168 24.6278C37.168 25.0428 37.5054 25.3794 37.9219 25.3794C38.2321 25.3794 38.5382 25.3952 38.8409 25.4254C43.3085 25.884 46.7524 29.5559 46.9097 34.0285C47.0673 38.501 43.8904 42.4044 39.4662 43.1745C35.0421 43.9442 30.7257 41.3454 29.3521 37.0843C29.2598 36.7974 29.1824 36.5065 29.1207 36.2115H30.4852C30.7607 36.2112 31.0139 36.0619 31.1466 35.8213C31.2786 35.581 31.2688 35.2878 31.1214 35.0562L28.9419 31.6474C28.8032 31.4303 28.5634 31.2991 28.3055 31.2991C28.0479 31.2991 27.8081 31.4303 27.6697 31.6474L25.4903 35.0562C25.3421 35.2878 25.333 35.5814 25.4654 35.8219C25.598 36.0622 25.8513 36.2115 26.1271 36.2115H27.5869C27.6081 36.3293 27.6306 36.4477 27.6566 36.5638C27.7664 37.0752 27.9155 37.5775 28.1028 38.0664C29.9111 42.8037 34.8656 45.5689 39.8646 44.6317C44.8629 43.6942 48.4698 39.3234 48.4264 34.2549C48.3829 29.1868 44.7016 24.8777 39.6878 24.0258ZM27.5013 34.7086L28.3065 33.4496L29.111 34.7086H27.5013Z" fill="#1AE5BE"/>
<path d="M37.4104 29.0022C36.9935 29.0022 36.6561 29.3384 36.6561 29.7535V35.1092C36.6561 35.5239 36.9935 35.8605 37.4104 35.8605H41.5052C41.9214 35.8605 42.2592 35.5239 42.2592 35.1092C42.2592 34.6941 41.9214 34.3575 41.5052 34.3575H38.1643V29.7535C38.164 29.3388 37.8266 29.0025 37.4104 29.0022Z" fill="#1AE5BE"/>
<path d="M18.452 7.58057H18.4459C17.2818 7.57822 16.3365 8.51708 16.3348 9.67707C16.3328 10.8374 17.275 11.7789 18.4395 11.7806H18.4459C19.6067 11.7796 20.5485 10.8441 20.5539 9.68747C20.557 8.52782 19.6164 7.5846 18.452 7.58057ZM18.4459 10.278H18.4446C18.1139 10.277 17.8458 10.0086 17.8468 9.67875C17.8482 9.34991 18.1159 9.08382 18.4459 9.08315H18.4479C18.7789 9.08382 19.047 9.35159 19.0463 9.68177C19.046 10.0116 18.7769 10.2784 18.4459 10.278Z" fill="#1AE5BE"/>
<path d="M12.372 7.56226H12.3653C11.2015 7.56058 10.2563 8.49944 10.2546 9.65909C10.2529 10.8191 11.1951 11.7606 12.3592 11.7623H12.3653C13.5264 11.7606 14.4686 10.8251 14.4737 9.66849V9.66178C14.4723 8.50481 13.5331 7.56662 12.372 7.56226ZM12.3653 10.2597H12.3633C12.0323 10.2591 11.7645 9.99129 11.7649 9.66111C11.7652 9.33126 12.0343 9.0645 12.3653 9.06484H12.3677C12.6987 9.06585 12.9664 9.33428 12.9654 9.66379C12.9637 9.99296 12.6957 10.2591 12.3653 10.2597Z" fill="#1AE5BE"/>
<path d="M6.29178 7.54273H6.28538C5.12125 7.54105 4.17634 8.47991 4.17432 9.6399C4.17263 10.7995 5.11485 11.7414 6.27864 11.7431H6.28538C7.44614 11.7418 8.38734 10.8063 8.3924 9.64996V9.64224C8.39172 8.48595 7.45287 7.54742 6.29178 7.54273ZM6.28538 10.2402H6.28336C5.95234 10.2399 5.68429 9.97175 5.68462 9.64191C5.6853 9.31173 5.95436 9.04464 6.28538 9.04564H6.28773C6.61876 9.04598 6.88647 9.31408 6.88613 9.64392C6.88512 9.9741 6.6164 10.2412 6.28538 10.2402Z" fill="#1AE5BE"/>
</svg>
