<svg width="25" height="25" viewBox="0 0 25 25" fill="none" xmlns="http://www.w3.org/2000/svg">
<g clip-path="url(#clip0_268_16559)">
<path d="M24.7936 3.31515L24.3148 3.21942C23.4278 3.042 22.5295 3.08106 21.6865 3.31515C21.9207 2.47221 21.9597 1.57386 21.7823 0.68693L21.6866 0.208192L21.2078 0.112455C19.3459 -0.259951 17.4328 0.319358 16.0903 1.66193L10.4279 7.32432L8.4098 5.30626L9.44543 4.27063L5.82068 0.645823C4.96411 -0.21074 3.57033 -0.210788 2.71376 0.645823C2.32774 1.03185 2.10331 1.53632 2.07387 2.07725C1.53293 2.10669 1.02852 2.33107 0.642489 2.71715C-0.214122 3.57376 -0.214122 4.9675 0.642489 5.82411L4.26724 9.44886L5.30288 8.41322L7.32094 10.4313L0.861011 16.8911C-0.281105 18.0332 -0.281105 19.8916 0.861011 21.0337C1.45585 21.6285 2.27106 21.9371 3.11795 21.8837C3.06693 22.6945 3.34975 23.5225 3.96797 24.1406C5.11004 25.2827 6.96841 25.2828 8.11057 24.1406L14.5705 17.6807L18.781 21.8912L17.7453 22.9268L18.7809 23.9625L19.8166 22.9268L21.8879 24.9981L22.9236 23.9625L20.8522 21.8912L21.8878 20.8556L23.9592 22.9269L24.9948 21.8913L22.9235 19.8199L23.9592 18.7843L22.9236 17.7487L21.8879 18.7843L17.6775 14.5738L23.3398 8.91144C24.6824 7.56887 25.2616 5.65572 24.8893 3.79384L24.7936 3.31515ZM4.26724 7.37754L1.67808 4.78837C1.39257 4.50287 1.39257 4.03824 1.67808 3.75273C1.96422 3.46655 2.42748 3.46655 2.71372 3.75273L5.30283 6.34185L4.26724 7.37754ZM3.7494 2.7171C3.46326 2.43096 3.46317 1.9677 3.7494 1.68146C4.03496 1.39596 4.49954 1.39591 4.78504 1.68146L7.37416 4.27058L6.33852 5.30621L3.7494 2.7171ZM6.33852 7.37754L7.37416 6.3419L9.39222 8.35996L8.35658 9.3956L6.33852 7.37754ZM1.89665 19.9981C1.32559 19.427 1.32559 18.4979 1.89665 17.9268L17.1259 2.69757C17.9949 1.82856 19.1933 1.38487 20.4158 1.47895C20.5094 2.69376 20.0716 3.89446 19.1972 4.76889L3.96797 19.9981C3.39691 20.5691 2.46776 20.5691 1.89665 19.9981ZM20.8522 19.8199L19.8166 20.8556L15.6061 16.6451L16.6418 15.6094L20.8522 19.8199ZM22.3042 7.8758L7.07493 23.105C6.50388 23.676 5.57472 23.676 5.00361 23.105C4.43255 22.534 4.43255 21.6048 5.00361 21.0337L20.2328 5.80453C21.1073 4.9301 22.3082 4.49247 23.5228 4.58591C23.6163 5.80067 23.1786 7.00137 22.3042 7.8758Z" fill="#051036"/>
</g>
<defs>
<clipPath id="clip0_268_16559">
<rect width="25" height="25" fill="white"/>
</clipPath>
</defs>
</svg>
