<svg width="30" height="30" viewBox="0 0 30 30" fill="none" xmlns="http://www.w3.org/2000/svg">
<path d="M27.1429 26.7681H22.5715C22.2414 26.768 21.9544 26.5418 21.8772 26.2209C21.7352 25.6315 21.2063 25.2173 20.6001 25.2209C19.9959 25.2235 19.4704 25.6351 19.323 26.2209C19.2457 26.5418 18.9587 26.7679 18.6287 26.7681H2.85717C1.27916 26.7681 0 25.4889 0 23.9109V12.6538C0 11.0759 1.27916 9.79663 2.85717 9.79663H18.6286C18.9582 9.79657 19.2451 10.022 19.3229 10.3423C19.4707 10.9279 19.9961 11.3392 20.6 11.3423C21.2061 11.3454 21.7347 10.9314 21.8771 10.3423C21.9549 10.022 22.2418 9.79657 22.5714 9.79663H27.1428C28.7208 9.79663 30 11.0758 30 12.6538V23.911C30 25.4889 28.7208 26.7681 27.1429 26.7681ZM23.07 25.3395H27.1429C27.9319 25.3395 28.5715 24.6999 28.5715 23.9109V12.6538C28.5715 11.8648 27.9319 11.2252 27.1429 11.2252H23.07C22.6116 12.1714 21.6514 12.7712 20.6 12.7681C19.552 12.7608 18.5973 12.1641 18.1314 11.2252H2.85717C2.06819 11.2252 1.42858 11.8648 1.42858 12.6538V23.911C1.42858 24.6999 2.06819 25.3395 2.85717 25.3395H18.1314C18.5972 24.4007 19.552 23.8039 20.6 23.7967C21.6516 23.7929 22.6121 24.3928 23.07 25.3395Z" fill="#051036"/>
<path d="M6.52857 11.2252C6.1342 11.2152 5.82255 10.8875 5.83248 10.4931C5.83951 10.2132 6.00945 9.9632 6.26714 9.85372L14.6529 6.55226C14.9522 6.43484 15.2932 6.53186 15.4858 6.78938C15.5595 6.89537 15.6497 6.98891 15.7529 7.06651C16.1235 7.35639 16.6186 7.4317 17.0586 7.26507C17.1637 7.22465 17.2628 7.16985 17.3529 7.10224C17.7391 6.81988 17.9406 6.34948 17.8786 5.87511C17.8325 5.54793 18.0168 5.23183 18.3243 5.1108L22.5829 3.43938C24.0341 2.85258 25.6862 3.55325 26.273 5.00445C26.2773 5.0151 26.2816 5.0258 26.2858 5.03651L27.2129 7.39224C27.3697 7.75424 27.2033 8.17477 26.8413 8.33159C26.4793 8.48841 26.0588 8.32203 25.902 7.96003C25.8956 7.94523 25.8897 7.93025 25.8843 7.91509L24.9557 5.55792C24.8196 5.20512 24.5473 4.92192 24.2 4.7722C23.8554 4.62031 23.4638 4.61568 23.1157 4.75932L19.3115 6.25077C19.2506 7.0327 18.8574 7.75099 18.2315 8.22362C18.0349 8.37316 17.8185 8.49479 17.5886 8.58502C16.6973 8.93283 15.6895 8.79508 14.9243 8.22073C14.8498 8.17201 14.7795 8.11709 14.7143 8.05645L6.79 11.175C6.70686 11.2084 6.61814 11.2253 6.52857 11.2252Z" fill="#051036"/>
<path d="M15.4757 18.9965H6.41573C6.14311 18.9965 5.89426 18.8413 5.77431 18.5965L5.11858 17.2551C4.9454 16.9 5.09284 16.4718 5.44786 16.2986C5.80289 16.1255 6.23112 16.2729 6.4043 16.6279L6.85714 17.5679H15.4715C15.866 17.5679 16.1857 17.8877 16.1857 18.2822C16.1857 18.6767 15.866 18.9965 15.4715 18.9965H15.4757V18.9965Z" fill="#051036"/>
<path d="M9.75284 21.4693C9.35835 21.4693 9.03857 21.1496 9.03857 20.7551C9.03857 20.5302 9.14444 20.3185 9.3243 20.1836L12.5986 17.7108C12.9141 17.4741 13.3619 17.538 13.5986 17.8536C13.8353 18.1692 13.7713 18.6169 13.4557 18.8536L10.1814 21.325C10.0585 21.4193 9.90773 21.4701 9.75284 21.4693Z" fill="#051036"/>
<path d="M13.0286 18.9966C12.874 18.9966 12.7236 18.9465 12.6 18.8538L9.32137 16.378C9.00581 16.1413 8.9418 15.6936 9.17851 15.378C9.41521 15.0625 9.86293 14.9985 10.1785 15.2352L13.4642 17.7095C13.7798 17.9462 13.8438 18.3939 13.6071 18.7094C13.4721 18.8893 13.2605 18.9952 13.0356 18.9952L13.0286 18.9966Z" fill="#051036"/>
<path d="M20.6 15.6865C20.2055 15.6865 19.8857 15.3667 19.8857 14.9722V14.4494C19.8857 14.0549 20.2055 13.7351 20.6 13.7351C20.9945 13.7351 21.3143 14.0549 21.3143 14.4494V14.9722C21.3143 15.3667 20.9945 15.6865 20.6 15.6865Z" fill="#051036"/>
<path d="M20.6 19.258C20.2055 19.258 19.8857 18.9382 19.8857 18.5438V18.0209C19.8857 17.6264 20.2055 17.3066 20.6 17.3066C20.9945 17.3066 21.3143 17.6264 21.3143 18.0209V18.5438C21.3143 18.9382 20.9945 19.258 20.6 19.258Z" fill="#051036"/>
<path d="M20.6 22.8295C20.2055 22.8295 19.8857 22.5098 19.8857 22.1153V21.5924C19.8857 21.1979 20.2055 20.8782 20.6 20.8782C20.9945 20.8782 21.3143 21.1979 21.3143 21.5924V22.1153C21.3143 22.5097 20.9945 22.8295 20.6 22.8295Z" fill="#051036"/>
<path d="M26.4286 21.8538C26.0341 21.8538 25.7143 21.534 25.7143 21.1395V15.4252C25.7143 15.0307 26.0341 14.7109 26.4286 14.7109C26.823 14.7109 27.1428 15.0307 27.1428 15.4252V21.1395C27.1429 21.534 26.823 21.8538 26.4286 21.8538Z" fill="#051036"/>
<path d="M23.5714 18.9966C23.177 18.9966 22.8572 18.6768 22.8572 18.2824V15.4252C22.8572 15.0307 23.177 14.7109 23.5714 14.7109C23.9659 14.7109 24.2857 15.0307 24.2857 15.4252V18.2824C24.2857 18.6768 23.9659 18.9966 23.5714 18.9966Z" fill="#051036"/>
</svg>
