<svg width="35" height="35" viewBox="0 0 35 35" fill="none" xmlns="http://www.w3.org/2000/svg">
<g clip-path="url(#clip0_268_16580)">
<path d="M34.8296 14.7352C34.6893 14.5757 34.4824 14.4904 34.2706 14.5047L27.7407 14.9432L20.2544 10.7206C19.8181 10.4745 19.4329 10.3876 18.8608 10.714C17.6415 11.4102 14.6533 14.1002 13.613 15.8921L7.84921 16.2792L7.80341 15.597C7.73143 14.524 6.83278 13.6836 5.75756 13.6836C5.71189 13.6836 5.66554 13.6851 5.61995 13.6881C5.614 13.6886 5.60812 13.689 5.60218 13.6896C4.48259 13.7741 3.63562 14.7494 3.71095 15.8719L3.75682 16.5539L0.637794 16.7634C0.414737 16.7784 0.213078 16.9015 0.0978241 17.0931C-0.0174295 17.2847 -0.0317166 17.5205 0.0596113 17.7246L1.32932 20.5637C1.32959 20.5643 1.32986 20.5649 1.33014 20.5655L2.60736 23.4214C2.71427 23.6604 2.9482 23.8174 3.20988 23.8256L24.6086 24.4986C24.6158 24.4988 24.6229 24.499 24.6301 24.499C27.543 24.499 30.1066 23.3647 32.0437 21.2189C34.0989 18.9422 34.7868 16.3345 34.9871 15.3191C35.0282 15.1106 34.97 14.8948 34.8296 14.7352ZM19.5387 11.9014C19.5432 11.8988 19.5475 11.8964 19.5516 11.8941C19.5609 11.8992 19.5712 11.9049 19.5829 11.9115L25.254 15.1102L15.3507 15.7754C16.5194 14.2985 18.6472 12.4103 19.5387 11.9014ZM5.71141 15.0525C5.7149 15.0523 5.71839 15.052 5.72181 15.0517C6.09505 15.0321 6.41449 15.3191 6.4393 15.6886L6.4851 16.3708L5.121 16.4624L5.07513 15.7804C5.0499 15.4042 5.3353 15.0777 5.71141 15.0525ZM32.8376 17.5241L29.7529 17.7311C29.3763 17.7564 29.0914 18.0823 29.1167 18.4589C29.1409 18.8201 29.4414 19.0968 29.7981 19.0968C29.8134 19.0968 29.829 19.0963 29.8445 19.0952L32.0665 18.9461C30.6558 21.1567 28.2868 23.1279 24.6406 23.1318L3.6806 22.4726L3.00767 20.968L5.45233 20.9456C5.82995 20.9422 6.13312 20.6334 6.12964 20.2558C6.12622 19.8804 5.82086 19.5785 5.44625 19.5785C5.4442 19.5785 5.44201 19.5785 5.43989 19.5785L2.39873 19.6063L1.70803 18.0618L33.4307 15.9314C33.2834 16.4378 33.0871 16.9771 32.8376 17.5241Z" fill="#051036"/>
<path d="M27.8225 19.2295C27.8386 19.2295 27.8548 19.229 27.8711 19.2278L27.8872 19.2266C28.2639 19.2002 28.5477 18.8734 28.5213 18.4968C28.4948 18.1202 28.1676 17.8362 27.7915 17.8628L27.7753 17.864C27.3987 17.8904 27.1148 18.2172 27.1413 18.5938C27.1667 18.9541 27.4668 19.2295 27.8225 19.2295Z" fill="#051036"/>
<path d="M7.41001 20.9276C7.41192 20.9276 7.41391 20.9276 7.41582 20.9276L7.43189 20.9274C7.80943 20.9243 8.11295 20.6158 8.1098 20.2382C8.10666 19.8626 7.8013 19.5603 7.42642 19.5603C7.42443 19.5603 7.42252 19.5603 7.42054 19.5603L7.40447 19.5604C7.02699 19.5635 6.72348 19.8721 6.72656 20.2496C6.7297 20.6253 7.03513 20.9276 7.41001 20.9276Z" fill="#051036"/>
</g>
<defs>
<clipPath id="clip0_268_16580">
<rect width="35" height="35" fill="white"/>
</clipPath>
</defs>
</svg>
